<svg class="svg-icon" style="width: 1em; height: 1em;vertical-align: middle;fill: currentColor;overflow: hidden;" viewBox="0 0 1024 1024" version="1.1" xmlns="http://www.w3.org/2000/svg"><path d="M512 96c19.2 0 32 12.8 32 32s-12.8 32-32 32C316.8 160 160 316.8 160 512c0 19.2-12.8 32-32 32s-32-12.8-32-32C96 281.6 281.6 96 512 96z m0 832c-19.2 0-32-12.8-32-32s12.8-32 32-32c195.2 0 352-156.8 352-352 0-19.2 12.8-32 32-32s32 12.8 32 32c0 230.4-185.6 416-416 416z" fill="#50E3C2" /><path d="M556.8 332.8c-12.8 12.8-32 12.8-44.8 0-12.8-12.8-12.8-32 0-44.8l67.2-67.2c64-64 163.2-64 227.2 0s64 163.2 0 227.2L672 582.4c-64 64-163.2 64-227.2 0-12.8-12.8-12.8-32 0-44.8s32-12.8 44.8 0c38.4 38.4 99.2 38.4 134.4 0l134.4-134.4c38.4-38.4 38.4-99.2 0-134.4-38.4-38.4-99.2-38.4-134.4 0l-67.2 64z" fill="#597EF7" /><path d="M467.2 691.2c12.8-12.8 32-12.8 44.8 0 12.8 12.8 12.8 32 0 44.8l-67.2 67.2c-64 64-163.2 64-227.2 0s-64-163.2 0-227.2l134.4-134.4c64-64 163.2-64 227.2 0 12.8 12.8 12.8 32 0 44.8s-32 12.8-44.8 0c-38.4-38.4-99.2-38.4-134.4 0l-134.4 134.4c-38.4 38.4-38.4 99.2 0 134.4 38.4 38.4 99.2 38.4 134.4 0l67.2-64z" fill="#597EF7" /></svg>